<?xml version="1.0" encoding="UTF-8"?>
<svg xmlns="http://www.w3.org/2000/svg" version="1.1" viewBox="0 0 397.6 33.3">
  <defs>
    <style>
      .cls-1 {
        fill: #fff;
      }
    </style>
  </defs>
  <!-- Generator: Adobe Illustrator 28.6.0, SVG Export Plug-In . SVG Version: 1.2.0 Build 709)  -->
  <g>
    <g id="Layer_1">
      <g id="Ebene_2">
        <g>
          <path id="WU_Vienna" class="cls-1" d="M173,2.3l-.3,1h2.6s-4.9,14.5-6.7,19.6c-2.3,6.4-6,7.7-8.9,7.7s-5.1-1.7-5.1-4.5.8-4,1.3-5.5c2.2-6.5,5.9-17.2,5.9-17.2h2.3l.3-1h-12.7l-.3,1h2.6l-5.5,15.7c-.8,2.3-1,3.5-1,4.9l-6.7-20.5h2.6l-.3-1h-12.7l.3,1h2.3l2.6,7.7-4.4,12.7-8.2-20.4h2.6l-.3-1h-13l.3,1h2.3l11.7,28.6h4l6-17.6,5.8,17.6h4l1.8-4.6c1.4,3.5,5.1,5.4,10.3,5.4,8.6,0,10.8-4.9,12.8-10.8,1.8-5.3,6.3-18.6,6.3-18.6h2.3l.3-1h-7.2.1Z"/>
          <rect class="cls-1" x="187.9" y="2.3" width="2.7" height="29.4"/>
          <g>
            <path class="cls-1" d="M200.6,2.9h1.3v7.3h-1.3V2.9Z"/>
            <path class="cls-1" d="M204.4,2.9h1.8l3.6,5.5h0V2.9h1.3v7.3h-1.7l-3.6-5.7h0v5.7h-1.3V2.9h-.1Z"/>
            <path class="cls-1" d="M217.3,4.4c-.3-.4-.8-.6-1.3-.6s-1.2.3-1.2.9c0,1.5,3.5.6,3.5,3.2s-1.3,2.3-2.7,2.3-1.8-.3-2.4-1l1-1c.4.5.9.8,1.4.8s1.3-.4,1.3-1c0-1.7-3.5-.6-3.5-3.3s1.4-2.3,2.7-2.3,1.5.3,2.2.8l-1,1h0v.4Z"/>
            <path class="cls-1" d="M222,4.1h-2.3v-1.2h5.9v1.2h-2.3v6.2h-1.3v-6.2h0Z"/>
            <path class="cls-1" d="M227.4,2.9h1.3v7.3h-1.3V2.9Z"/>
            <path class="cls-1" d="M232.7,4.1h-2.3v-1.2h5.9v1.2h-2.3v6.2h-1.3v-6.2h0Z"/>
            <path class="cls-1" d="M244,7.5c0,1.8-1.3,2.8-3,2.8s-3-1.2-3-2.8V2.9h1.3v4.6c0,.8.4,1.7,1.7,1.7s1.7-1,1.7-1.7V2.9h1.3v4.6Z"/>
            <path class="cls-1" d="M248,4.1h-2.3v-1.2h5.9v1.2h-2.3v6.2h-1.3v-6.2h0Z"/>
            <path class="cls-1" d="M257.3,2.9h4.8v1.2h-3.5v1.9h3.2v1.2h-3.2v3.1h-1.3V2.9h0Z"/>
            <path class="cls-1" d="M270,7.5c0,1.8-1.3,2.8-3,2.8s-3-1.2-3-2.8V2.9h1.3v4.6c0,.8.4,1.7,1.7,1.7s1.7-1,1.7-1.7V2.9h1.3v4.6ZM266.1.8c.5,0,.8.4.8.8s-.4.8-.8.8-.8-.4-.8-.8.4-.8.8-.8ZM268.2.8c.5,0,.8.4.8.8s-.4.8-.8.8-.8-.4-.8-.8.4-.8.8-.8Z"/>
            <path class="cls-1" d="M272.6,2.9h2.6c1.4,0,2.8.5,2.8,2.2s-.6,1.8-1.7,1.9l1.9,3.2h-1.5l-1.7-3.2h-1v3.2h-1.3V2.9h-.1ZM274.9,6c.8,0,1.7,0,1.7-1s-.8-1-1.5-1h-1.2v1.9h1,0Z"/>
            <path class="cls-1" d="M287.5,2.6c2.3,0,4,1.5,4,3.9s-1.7,3.9-4,3.9-3.9-1.5-3.9-3.9,1.7-3.9,3.9-3.9ZM287.5,9.2c1.5,0,2.6-1.2,2.6-2.7s-1-2.6-2.6-2.6-2.6,1.2-2.6,2.6,1,2.7,2.6,2.7ZM286.5.8c.5,0,.8.4.8.8s-.4.8-.8.8-.8-.4-.8-.8.4-.8.8-.8ZM288.7.8c.5,0,.8.4.8.8s-.4.8-.8.8-.8-.4-.8-.8.4-.8.8-.8Z"/>
            <path class="cls-1" d="M297.3,4.4c-.3-.4-.8-.6-1.3-.6s-1.2.3-1.2.9c0,1.5,3.5.6,3.5,3.2s-1.3,2.3-2.7,2.3-1.8-.3-2.4-1l1-1c.4.5.9.8,1.4.8s1.3-.4,1.3-1c0-1.7-3.5-.6-3.5-3.3s1.4-2.3,2.7-2.3,1.5.3,2.2.8l-1,1h0v.4Z"/>
            <path class="cls-1" d="M302,4.1h-2.3v-1.2h5.9v1.2h-2.3v6.2h-1.3v-6.2h0Z"/>
            <path class="cls-1" d="M307.4,2.9h4.9v1.2h-3.6v1.8h3.3v1.2h-3.3v1.9h3.7v1.2h-5.1V2.9h.1Z"/>
            <path class="cls-1" d="M314.6,2.9h2.6c1.4,0,2.8.5,2.8,2.2s-.6,1.8-1.7,1.9l1.9,3.2h-1.5l-1.7-3.2h-1v3.2h-1.3V2.9h-.1ZM316.9,6c.8,0,1.7,0,1.7-1s-.8-1-1.5-1h-1.2v1.9h1Z"/>
            <path class="cls-1" d="M322.1,2.9h2.6c1.4,0,2.8.5,2.8,2.2s-.6,1.8-1.7,1.9l1.9,3.2h-1.5l-1.7-3.2h-1v3.2h-1.3V2.9h-.1ZM324.4,6c.8,0,1.7,0,1.7-1s-.8-1-1.5-1h-1.2v1.9h1Z"/>
            <path class="cls-1" d="M329.5,2.9h4.9v1.2h-3.6v1.8h3.3v1.2h-3.3v1.9h3.7v1.2h-5.1V2.9h.1Z"/>
            <path class="cls-1" d="M336.8,2.9h1.3v7.3h-1.3V2.9Z"/>
            <path class="cls-1" d="M345.7,4.6c-.5-.5-1-.8-1.5-.8-1.5,0-2.6,1.2-2.6,2.6s1,2.7,2.6,2.7,1.2-.3,1.7-.9l1,.8c-.6.9-1.7,1.3-2.8,1.3-2.3,0-3.9-1.5-3.9-3.9s1.7-3.9,3.9-3.9,1.9.4,2.6,1.2l-1,.8h.1Z"/>
            <path class="cls-1" d="M348.6,2.9h1.3v3h3.5v-3h1.3v7.3h-1.3v-3.2h-3.5v3.2h-1.3V2.9Z"/>
            <path class="cls-1" d="M357.2,2.9h1.3v7.3h-1.3V2.9Z"/>
            <path class="cls-1" d="M364.7,4.4c-.3-.4-.8-.6-1.3-.6s-1.2.3-1.2.9c0,1.5,3.5.6,3.5,3.2s-1.3,2.3-2.7,2.3-1.8-.3-2.4-1l1-1c.4.5.9.8,1.4.8s1.3-.4,1.3-1c0-1.7-3.5-.6-3.5-3.3s1.4-2.3,2.7-2.3,1.5.3,2.2.8l-1,1h0v.4Z"/>
            <path class="cls-1" d="M372.9,4.6c-.5-.5-1-.8-1.5-.8-1.5,0-2.6,1.2-2.6,2.6s1,2.7,2.6,2.7,1.2-.3,1.7-.9l1,.8c-.6.9-1.7,1.3-2.8,1.3-2.3,0-3.9-1.5-3.9-3.9s1.7-3.9,3.9-3.9,1.9.4,2.6,1.2l-1,.8h.1Z"/>
            <path class="cls-1" d="M375.9,2.9h1.3v3h3.5v-3h1.3v7.3h-1.3v-3.2h-3.5v3.2h-1.3V2.9Z"/>
            <path class="cls-1" d="M384.6,2.9h4.9v1.2h-3.6v1.8h3.3v1.2h-3.3v1.9h3.7v1.2h-5.1V2.9h.1Z"/>
            <path class="cls-1" d="M395.4,4.4c-.3-.4-.8-.6-1.3-.6s-1.2.3-1.2.9c0,1.5,3.5.6,3.5,3.2s-1.3,2.3-2.7,2.3-1.8-.3-2.4-1l1-1c.4.5.9.8,1.4.8s1.3-.4,1.3-1c0-1.7-3.5-.6-3.5-3.3s1.4-2.3,2.7-2.3,1.5.3,2.2.8l-1,1h0v.4Z"/>
            <path class="cls-1" d="M206.6,18.4c0,1.8-1.3,2.8-3,2.8s-3-1.2-3-2.8v-4.6h1.3v4.6c0,.8.4,1.7,1.7,1.7s1.7-1,1.7-1.7v-4.6h1.3s0,4.6,0,4.6Z"/>
            <path class="cls-1" d="M208.5,13.7h1.8l3.6,5.5h0v-5.5h1.3v7.3h-1.7l-3.6-5.7h0v5.7h-1.3v-7.3h-.1Z"/>
            <path class="cls-1" d="M217.3,13.7h3c1.9,0,3.7,1.2,3.7,3.7s-2.2,3.7-3.9,3.7h-2.8v-7.3h0ZM219.6,20c1.7,0,3-.8,3-2.6s-1.2-2.6-2.8-2.6h-1.2v5h1,0Z"/>
            <path class="cls-1" d="M229.2,13.7h4.9v1.2h-3.6v1.8h3.5v1.2h-3.5v1.9h3.7v1.2h-5.1v-7.3h.1Z"/>
            <path class="cls-1" d="M241.8,18.4c0,1.8-1.3,2.8-3,2.8s-3-1.2-3-2.8v-4.6h1.3v4.6c0,.8.4,1.7,1.7,1.7s1.7-1,1.7-1.7v-4.6h1.3s0,4.6,0,4.6Z"/>
            <path class="cls-1" d="M243.8,13.7h2.6c1.4,0,2.8.5,2.8,2.2s-.6,1.8-1.7,1.9l1.9,3.2h-1.5l-1.7-3.2h-1v3.2h-1.3v-7.3h-.1ZM246.3,16.9c.8,0,1.7,0,1.7-1s-.8-1-1.5-1h-1.2v1.9h1,0Z"/>
            <path class="cls-1" d="M254.4,13.6c2.3,0,4,1.5,4,3.9s-1.7,3.9-4,3.9-3.9-1.5-3.9-3.9,1.7-3.9,3.9-3.9ZM254.4,20.1c1.5,0,2.6-1.2,2.6-2.7s-1-2.6-2.6-2.6-2.6,1.2-2.6,2.6,1,2.7,2.6,2.7Z"/>
            <path class="cls-1" d="M260,13.7h2.4c1.4,0,2.7.5,2.7,2.2s-1.4,2.2-3,2.2h-.9v3.1h-1.3v-7.3h0ZM262.1,16.9c.8,0,1.7,0,1.7-1s-.9-1-1.5-1h-.9v2.1h.8,0Z"/>
            <path class="cls-1" d="M269.1,13.7h1.2l3.2,7.3h-1.5l-.6-1.7h-3.2l-.6,1.7h-1.4l3.2-7.3h-.1ZM268.6,11.8c.5,0,.8.4.8.8s-.4.8-.8.8-.8-.4-.8-.8.4-.8.8-.8ZM270.8,18.3l-1.2-3-1.2,3h2.3,0ZM270.8,11.8c.5,0,.8.4.8.8s-.4.8-.8.8-.8-.4-.8-.8.4-.8.8-.8Z"/>
            <path class="cls-1" d="M274.7,13.7h1.3v7.3h-1.3s0-7.3,0-7.3Z"/>
            <path class="cls-1" d="M281.7,15.4c-.3-.4-.8-.6-1.3-.6s-1.2.3-1.2.9c0,1.5,3.5.6,3.5,3.2s-1.3,2.3-2.7,2.3-1.8-.3-2.4-1l1-1c.4.5.9.8,1.4.8s1.3-.4,1.3-1c0-1.7-3.5-.6-3.5-3.3s1.4-2.3,2.7-2.3,1.5.3,2.2.8l-1,1h0v.4Z"/>
            <path class="cls-1" d="M289.6,15.5c-.5-.5-1-.8-1.5-.8-1.5,0-2.6,1.2-2.6,2.6s1,2.7,2.6,2.7,1.2-.3,1.7-.9l1,.8c-.6.9-1.7,1.3-2.8,1.3-2.3,0-3.9-1.5-3.9-3.9s1.7-3.9,3.9-3.9,1.9.4,2.6,1.2l-1,.8h.1Z"/>
            <path class="cls-1" d="M292,13.7h1.3v3h3.5v-3h1.3v7.3h-1.3v-3.2h-3.5v3.2h-1.3s0-7.3,0-7.3Z"/>
            <path class="cls-1" d="M300.2,13.7h4.9v1.2h-3.6v1.8h3.3v1.2h-3.3v1.9h3.7v1.2h-5.1v-7.3h.1Z"/>
            <path class="cls-1" d="M310.6,15.4c-.3-.4-.8-.6-1.3-.6s-1.2.3-1.2.9c0,1.5,3.5.6,3.5,3.2s-1.3,2.3-2.7,2.3-1.8-.3-2.4-1l1-1c.4.5.9.8,1.4.8s1.3-.4,1.3-1c0-1.7-3.5-.6-3.5-3.3s1.4-2.3,2.7-2.3,1.5.3,2.2.8l-1,1h0v.4Z"/>
            <path class="cls-1" d="M319.2,13.7h1.2l3.2,7.3h-1.5l-.6-1.7h-3.2l-.6,1.7h-1.4l3.2-7.3h-.1ZM320.9,18.3l-1.2-3-1.2,3h2.3Z"/>
            <path class="cls-1" d="M324.9,13.7h2.6c1.4,0,2.8.5,2.8,2.2s-.6,1.8-1.7,1.9l1.9,3.2h-1.5l-1.7-3.2h-1v3.2h-1.3v-7.3h-.1ZM327.2,16.9c.8,0,1.7,0,1.7-1s-.8-1-1.5-1h-1.2v1.9h1Z"/>
            <path class="cls-1" d="M331.8,13.7h2.8c1.2,0,2.3.5,2.3,1.9s-.5,1.4-1.3,1.7h0c.9,0,1.7.9,1.7,1.8,0,1.7-1.4,2.1-2.8,2.1h-2.7v-7.3h0ZM333.1,16.8h1.2c.9,0,1.3-.4,1.3-.9s-.5-.9-1.4-.9h-1v1.9h0ZM333.1,20h1.2c.6,0,1.7,0,1.7-1s-.5-1-1.5-1h-1.3v2.2h0Z"/>
            <path class="cls-1" d="M339,13.7h4.9v1.2h-3.6v1.8h3.3v1.2h-3.3v1.9h3.7v1.2h-5.1v-7.3h.1Z"/>
            <path class="cls-1" d="M345.7,13.7h1.3v7.3h-1.3s0-7.3,0-7.3Z"/>
            <path class="cls-1" d="M350.6,15h-2.3v-1.2h5.9v1.2h-2.3v6.2h-1.3v-6.2h0Z"/>
            <path class="cls-1" d="M359,15.4c-.3-.4-.8-.6-1.3-.6s-1.2.3-1.2.9c0,1.5,3.5.6,3.5,3.2s-1.3,2.3-2.7,2.3-1.8-.3-2.4-1l1-1c.4.5.9.8,1.4.8s1.3-.4,1.3-1c0-1.7-3.5-.6-3.5-3.3s1.4-2.3,2.7-2.3,1.5.3,2.2.8l-1,1h0v.4Z"/>
            <path class="cls-1" d="M361.9,13.7h2.6c1.4,0,2.8.5,2.8,2.2s-.6,1.8-1.7,1.9l1.9,3.2h-1.5l-1.7-3.2h-1v3.2h-1.3v-7.3h-.1ZM364.2,16.9c.8,0,1.7,0,1.7-1s-.8-1-1.5-1h-1.2v1.9h1Z"/>
            <path class="cls-1" d="M368.9,13.7h4.9v1.2h-3.6v1.8h3.3v1.2h-3.3v1.9h3.7v1.2h-5.1v-7.3h.1Z"/>
            <path class="cls-1" d="M380.7,15.5c-.5-.5-1-.8-1.5-.8-1.5,0-2.6,1.2-2.6,2.6s1,2.7,2.6,2.7,1.2-.3,1.7-.9l1,.8c-.6.9-1.7,1.3-2.8,1.3-2.3,0-3.9-1.5-3.9-3.9s1.7-3.9,3.9-3.9,1.9.4,2.6,1.2l-1,.8h.1Z"/>
            <path class="cls-1" d="M383.3,13.7h1.3v3h3.5v-3h1.3v7.3h-1.3v-3.2h-3.5v3.2h-1.3s0-7.3,0-7.3Z"/>
            <path class="cls-1" d="M392.9,15h-2.3v-1.2h5.9v1.2h-2.3v6.2h-1.3v-6.2h0Z"/>
            <path class="cls-1" d="M206.6,29.4c0,1.8-1.3,2.8-3,2.8s-3-1.2-3-2.8v-4.6h1.3v4.6c0,.8.4,1.7,1.7,1.7s1.7-1,1.7-1.7v-4.6h1.3v4.6Z"/>
            <path class="cls-1" d="M208.5,24.6h1.8l3.6,5.5h0v-5.5h1.3v7.3h-1.7l-3.6-5.7h0v5.7h-1.3v-7.3h-.1Z"/>
            <path class="cls-1" d="M217.3,24.6h3c1.9,0,3.7,1.2,3.7,3.7s-2.2,3.7-3.9,3.7h-2.8v-7.3h0ZM219.6,30.9c1.7,0,3-.8,3-2.6s-1.2-2.6-2.8-2.6h-1.2v5h1,0Z"/>
            <path class="cls-1" d="M232.8,26.3c-.3-.4-.8-.6-1.3-.6s-1.2.3-1.2.9c0,1.5,3.5.6,3.5,3.2s-1.3,2.3-2.7,2.3-1.8-.3-2.4-1l1-1c.4.5.9.8,1.4.8s1.3-.4,1.3-1c0-1.7-3.5-.6-3.5-3.3s1.4-2.3,2.7-2.3,1.5.3,2.2.8l-1,1h0v.4Z"/>
            <path class="cls-1" d="M239.1,24.5c2.3,0,4,1.5,4,3.9s-1.7,3.9-4,3.9-3.9-1.5-3.9-3.9,1.7-3.9,3.9-3.9ZM239.1,31c1.5,0,2.6-1.2,2.6-2.7s-1-2.6-2.6-2.6-2.6,1.2-2.6,2.6,1,2.7,2.6,2.7Z"/>
            <path class="cls-1" d="M244.2,30.9l4-5h-3.9v-1.2h5.5v1.2l-4,5h4.1v1.2h-5.7v-1.2h-.1Z"/>
            <path class="cls-1" d="M251.4,24.6h1.3v7.3h-1.3s0-7.3,0-7.3Z"/>
            <path class="cls-1" d="M257.2,24.6h1.2l3.2,7.3h-1.5l-.6-1.7h-3.2l-.6,1.7h-1.4l3.2-7.3h-.1ZM258.9,29.2l-1.2-3-1.2,3h2.3,0Z"/>
            <path class="cls-1" d="M262.7,24.6h1.3v6.2h3.2v1.2h-4.5v-7.3Z"/>
            <path class="cls-1" d="M268.5,24.6h2.6c1.4,0,2.8.5,2.8,2.2s-.6,1.8-1.7,1.9l1.9,3.2h-1.5l-1.7-3.2h-1v3.2h-1.3v-7.3h-.1ZM270.9,27.8c.8,0,1.7,0,1.7-1s-.8-1-1.5-1h-1.2v1.9h1,0Z"/>
            <path class="cls-1" d="M275.6,24.6h4.9v1.2h-3.6v1.8h3.3v1.2h-3.3v1.9h3.7v1.2h-5.1v-7.3h.1Z"/>
            <path class="cls-1" d="M287.4,26.4c-.5-.5-1-.8-1.5-.8-1.5,0-2.6,1.2-2.6,2.6s1,2.7,2.6,2.7,1.2-.3,1.7-.9l1,.8c-.6.9-1.7,1.3-2.8,1.3-2.3,0-3.9-1.5-3.9-3.9s1.7-3.9,3.9-3.9,1.9.4,2.6,1.2l-1,.8h.1Z"/>
            <path class="cls-1" d="M289.9,24.6h1.3v3h3.5v-3h1.3v7.3h-1.3v-3.2h-3.5v3.2h-1.3s0-7.3,0-7.3Z"/>
            <path class="cls-1" d="M299.6,25.9h-2.3v-1.2h5.9v1.2h-2.3v6.2h-1.3v-6.2h0Z"/>
          </g>
        </g>
        <g id="uuid-7f147673-8953-4dbc-8c65-25981123f476">
          <g>
            <path class="cls-1" d="M1.7,8.8h.1l4.8-4.4h1.9l-5.5,5,5.9,4.9h-1.9L1.8,10h-.1v4.4H.2V1.3h1.5v7.5Z"/>
            <path class="cls-1" d="M10,14.4V4.4h1.5v2.9h0c.4-2,1.4-2.9,3-2.9h.7v1.6h-.8c-2,0-2.9.8-2.9,2.9v5.5h-1.5Z"/>
            <path class="cls-1" d="M16.4,2.7v-1.4h1.8v1.5h-1.8ZM16.6,14.4V4.4h1.5v9.9h-1.5Z"/>
            <path class="cls-1" d="M24.9,5.6c-2.1,0-3.5,1.3-3.5,3.8s1.4,3.8,3.6,3.8,2.9-1.3,3.3-2.9l1.4.3c-.5,2.5-1.9,3.9-4.7,3.9s-5.1-1.9-5.1-5.2,2.2-5.2,5-5.2,4.3,1.4,4.7,3.8l-1.4.3c-.4-1.7-1.4-2.8-3.3-2.8h0v.2Z"/>
            <path class="cls-1" d="M32.8,14.4h-1.5V1.3h1.5v5.8h0c.4-1.9,1.8-2.9,3.5-2.9,2.7,0,3.6,1.8,3.6,3.9v6.2h-1.5v-5.9c0-1.5-.6-2.9-2.7-2.9s-3.1,1.1-3.1,2.9v5.9h.2Z"/>
            <path class="cls-1" d="M43.7,14.4h-1.5V4.4h1.5v2.7h0c.4-1.9,1.8-2.9,3.5-2.9s3.3,1.4,3.6,3.1h0c.3-2.1,1.5-3.1,3.5-3.1s3.7,1.8,3.7,3.9v6.2h-1.5v-5.9c0-1.5-.6-2.9-2.7-2.9s-3.1,1.1-3.1,2.9v5.9h-1.5v-5.9c0-1.5-.6-2.9-2.7-2.9s-3.1,1.1-3.1,2.9v5.9h.3Z"/>
            <path class="cls-1" d="M66.7,11.8h0c-.5,1.9-1.9,2.8-3.6,2.8s-3.2-.9-3.2-2.8,1.1-2.9,3.5-2.9h3.4v-.7c0-1.8-.6-2.7-2.4-2.7s-2.4.8-2.7,2.6l-1.4-.2c.3-2.4,1.8-3.6,4.2-3.6s3.8,1.4,3.8,4v6.2h-1.4v-2.6h-.2ZM66.7,10.7v-.6h-3.3c-1.4,0-2.2.6-2.2,1.6s.6,1.6,2.1,1.6,3.3-1.1,3.3-2.6h0Z"/>
            <path class="cls-1" d="M69,17.7l.2-1.4c.4,0,.8.1,1.3.1,1.2,0,1.9-.3,2.7-2.2l-4.4-9.8h1.7l1.4,3.5c.5,1.3,1.4,3.3,2.1,4.9.6-1.6,1.4-3.5,1.9-4.8l1.4-3.5h1.6l-4.3,10.1c-1,2.3-2.2,3.3-4.1,3.3s-1.1,0-1.4-.1h0Z"/>
            <path class="cls-1" d="M80.1,14.4V4.4h1.5v2.9h0c.4-2,1.4-2.9,3-2.9h.7v1.6h-.8c-2,0-2.9.8-2.9,2.9v5.5s-1.5,0-1.5,0Z"/>
            <path class="cls-1" d="M43.3,23.6H.2v-1.3h43.1v-2.8h1.5v2.8h3.4v1.3h-3.4v5.6c0,1.2.5,1.9,1.7,1.9s1,0,1.6-.3l.2,1.4c-.7.2-1.2.3-2,.3-2,0-2.9-1.3-2.9-3.1v-5.7h0Z"/>
            <path class="cls-1" d="M49.6,20.6v-1.5h1.8v1.5h-1.8ZM49.8,32.3v-10h1.5v10h-1.5Z"/>
            <path class="cls-1" d="M55.1,32.3h-1.5v-10h1.5v2.7h0c.4-1.9,1.8-2.9,3.5-2.9,2.7,0,3.6,1.8,3.6,3.9v6.2h-1.5v-5.9c0-1.5-.6-2.9-2.7-2.9s-3.1,1.1-3.1,2.9v5.9h.2Z"/>
            <path class="cls-1" d="M66,32.3h-1.5v-13.1h1.5v5.8h0c.4-1.9,1.8-2.9,3.6-2.9,2.7,0,3.6,1.8,3.6,3.9v6.2h-1.5v-5.9c0-1.5-.6-2.9-2.7-2.9s-3.1,1.1-3.1,2.9v5.9h0Z"/>
            <path class="cls-1" d="M74.8,27.3c0-3.2,2.1-5.2,5-5.2s5,1.9,5,5.2-1.9,5.2-5,5.2-5-2-5-5.2ZM76.3,27.3c0,2.3,1.2,3.9,3.5,3.9s3.6-1.6,3.6-3.9-1.3-3.8-3.5-3.8-3.5,1.5-3.5,3.8h0Z"/>
            <path class="cls-1" d="M88.7,22.3h3.2v1.3h-3.2v8.6h-1.5v-8.6h-1.9v-1.3h1.9v-.2c0-2,1.1-3.3,3.2-3.3s1.2,0,1.6.2l-.2,1.2c-.5-.1-.9-.1-1.3-.1-1.4,0-1.9.8-1.9,2.1v.2h.1Z"/>
            <path class="cls-1" d="M92.6,27.4c0-3.3,2.1-5.2,5-5.2s4.6,1.9,4.6,4.6,0,.6,0,1h-8c.2,2.2,1.4,3.4,3.6,3.4s2.8-1,3.1-2.3l1.3.4c-.5,2-2,3.2-4.4,3.2s-5.1-1.9-5.1-5.2h0ZM94.1,26.6h6.7c0-2-1.2-3.1-3.2-3.1s-3.2,1.1-3.5,3.1Z"/>
            <path class="cls-1" d="M103.9,32.3v-10h1.5v2.9h0c.4-2,1.4-2.9,3-2.9h.7v1.6h-.8c-2,0-2.9.8-2.9,2.9v5.5s-1.5,0-1.5,0Z"/>
          </g>
        </g>
      </g>
    </g>
  </g>
</svg>