<?xml version="1.0" encoding="utf-8"?>
<!-- Generator: Adobe Illustrator 28.1.0, SVG Export Plug-In . SVG Version: 6.00 Build 0)  -->
<svg version="1.1" id="Layer_1" xmlns="http://www.w3.org/2000/svg" xmlns:xlink="http://www.w3.org/1999/xlink" x="0px" y="0px"
	 viewBox="0 0 2001.83 1000" style="enable-background:new 0 0 2001.83 1000;" xml:space="preserve">
<style type="text/css">
	.st0{fill:#292929;}
</style>
<g>
	<path class="st0" d="M972.35,130.09c0.12,5.35,0.3,10.71,0.34,16.06c0.06,7.57-0.07,15.14,0.05,22.7c0.04,2.53-0.79,3.62-3.36,3.36
		c-1.21-0.12-2.44-0.02-3.66-0.02c-90.94,0-181.87,0-272.81,0c-1.59,0-3.18-0.05-4.76,0.04c-9.3,0.54-14.87,5.73-14.95,15.04
		c-0.22,25.87-0.22,51.75,0.01,77.63c0.08,9.29,5.7,14.44,15.03,14.95c1.46,0.08,2.93,0.04,4.39,0.04c82.03,0,164.05,0,246.08,0
		c5.4,0,5.41,0.01,5.41,5.27c0,12.07,0,24.15,0,36.84c-1.81,0-3.33,0-4.85,0c-83.12,0-166.25,0-249.37,0
		c-11.12,0-16.75,5.45-16.78,16.55c-0.07,24.9-0.07,49.8,0,74.7c0.03,10.82,5.76,16.3,16.67,16.3c92.4,0,184.8,0,277.2,0
		c1.69,0,3.37,0,5.42,0c0.1,1.6,0.26,2.89,0.26,4.18c0.02,11.23-0.13,22.46,0.09,33.69c0.07,3.63-1.14,4.43-4.58,4.43
		c-59.08-0.1-118.16-0.07-177.23-0.07c-51.63,0-103.26,0-154.9-0.01c-1.69,0-3.39-0.22-5.08-0.34c0-113.72,0-227.44,0-341.35
		C744.78,130.09,858.56,130.09,972.35,130.09z"/>
	<path class="st0" d="M1029.48,869.91c-0.12-1.45-0.34-2.9-0.34-4.35c-0.02-110.73-0.02-221.45-0.01-332.18
		c0-5.17,0.01-5.17,5.14-5.17c10.74,0,21.49,0,32.23,0c1.43,0,2.87,0,4.73,0c0,1.99,0,3.54,0,5.1c0,42.12,0,84.24,0,126.35
		c0,1.34-0.03,2.69,0.05,4.03c0.49,8.58,6.39,14.26,14.95,14.3c12.7,0.05,25.39,0.01,38.09,0.01c62.51,0,125.01,0,187.52,0
		c11.32,0,16.85-5.44,16.86-16.82c0.03-42.48,0.01-84.97,0.02-127.45c0-6.06-0.54-5.49,5.53-5.5c10.62-0.03,21.24-0.01,31.86-0.01
		c1.43,0,2.86,0,4.71,0c0,114.21,0,227.96,0,341.7c-14.16,0-28.32,0-42.49,0c0.12-1.45,0.34-2.9,0.34-4.35
		c0.02-42.6,0.02-85.2,0-127.79c0-1.83-0.06-3.67-0.31-5.47c-0.87-6.3-5.79-11.13-12.13-11.88c-2.05-0.24-4.14-0.29-6.21-0.29
		c-73.48-0.01-146.96-0.01-220.44,0c-1.95,0-3.91,0.05-5.84,0.28c-5.82,0.7-10.49,4.71-11.85,10.42c-0.55,2.34-0.65,4.83-0.65,7.25
		c-0.04,43.94-0.03,87.88-0.03,131.82C1057.32,869.91,1043.4,869.91,1029.48,869.91z"/>
	<path class="st0" d="M631,678c44.32,0,88.63,0,132.95,0c11.31,0,16.84-5.47,16.85-16.84c0.03-42.61,0.01-85.21,0.01-127.82
		c0-5.12,0.01-5.13,5.19-5.13c10.74,0,21.49,0,32.23,0c1.43,0,2.86,0,4.69,0c0,2.03,0,3.59,0,5.14c0,42.73,0,85.46,0,128.18
		c0,10.89,5.56,16.46,16.43,16.46c42.73,0,85.46,0,128.18,0c1.56,0,3.11,0,5.17,0c0,2.06,0,3.73,0,5.4c0,10.62,0,21.24,0,31.86
		c0,4.83-0.01,4.84-4.74,4.85c-42.36,0-84.72-0.01-127.09,0.03c-2.55,0-5.18,0.07-7.62,0.7c-6.36,1.67-10.32,7.27-10.34,14.3
		c-0.04,14.65-0.01,29.3-0.01,43.95c0,30.28,0,60.55,0,90.83c-13.92,0-27.84,0-41.75,0c-0.12-1.69-0.34-3.38-0.34-5.07
		c-0.02-42.07-0.01-84.14-0.03-126.21c0-1.95-0.04-3.91-0.27-5.84c-0.8-6.73-5.71-11.65-12.4-12.4c-2.05-0.23-4.14-0.27-6.2-0.28
		c-41.95-0.02-83.9-0.01-125.85-0.03c-1.69,0-3.38-0.22-5.07-0.34C631,705.83,631,691.92,631,678z"/>
</g>
</svg>
